<svg xmlns="http://www.w3.org/2000/svg" viewBox="0 0 300 80" role="img" aria-label="Relocost">
  <!-- Полный логотип, монохром. Цвет наследуется через currentColor:
       задайте `color` на <svg> или родителе. По умолчанию (без color) — чёрный. -->
  <g fill="currentColor">
    <g transform="translate(8,8)">
      <path fill-rule="evenodd" d="M32 13c-9.4 0-17 7.2-17 16.4 0 7 4.8 13.3 11.2 18.9 1.9 1.6 3.7 3 5 4 0.5 0.4 1.1 0.4 1.6 0 1.3-1 3.1-2.4 5-4C45.2 42.7 49 36.4 49 29.4 49 20.2 41.4 13 32 13Zm0 9.5a6.5 6.5 0 1 0 0 13 6.5 6.5 0 0 0 0-13Z"/>
    </g>
    <text x="84" y="52" font-family="'Cormorant Garamond', Georgia, serif" font-size="44" font-weight="600" letter-spacing="0.2">Relocost</text>
  </g>
</svg>
