<svg xmlns="http://www.w3.org/2000/svg" viewBox="0 0 64 64" role="img" aria-label="Relocost — знак, вариант 3: пин с монограммой R">
  <!-- Mark 3: гибрид — пин-маркер с буквой R внутри (вырез цвета фона). -->
  <rect width="64" height="64" rx="16" fill="#1A2105"/>
  <path d="M32 12c-9.9 0-18 7.7-18 17.3 0 7.6 5.3 14.3 12.4 20.2 1.9 1.6 3.8 3 5.1 4 0.3 0.2 0.7 0.2 1 0 1.3-1 3.2-2.4 5.1-4C44.7 43.6 50 36.9 50 29.3 50 19.7 41.9 12 32 12Z" fill="#E89B6E"/>
  <!-- R внутри пина, цвет фона. fill-rule evenodd для отверстия чаши. -->
  <path fill="#1A2105" fill-rule="evenodd" d="M25 22c0-1.1 0.9-2 2-2h6.6c3.7 0 6.7 2.8 6.7 6.5 0 2.6-1.5 4.9-3.8 6l3.7 6c0.7 1.2-0.1 2.7-1.5 2.7h-0.7c-0.8 0-1.5-0.4-1.9-1.1L31.7 39H29v4c0 1.1-0.9 2-2 2s-2-0.9-2-2V22Zm4 2.5v5h4c1.6 0 2.7-1.1 2.7-2.5 0-1.4-1.1-2.5-2.7-2.5H29Z"/>
</svg>
