<svg xmlns="http://www.w3.org/2000/svg" viewBox="0 0 64 64" role="img" aria-label="Relocost — знак, вариант 2: монограмма R">
  <!-- Mark 2: монограмма R в скруглённом сквиркле. Персиковая R на зелёном. -->
  <rect width="64" height="64" rx="16" fill="#1A2105"/>
  <!-- Тело R: стойка + чаша с вырезом + диагональная нога. fill-rule evenodd для отверстия. -->
  <path fill="#E89B6E" fill-rule="evenodd" d="M21 18.5C21 16.6 22.6 15 24.5 15H35c5.8 0 10.5 4.4 10.5 10.2 0 4.2-2.5 7.8-6.1 9.4l5.9 9.6c1.2 1.9-0.2 4.3-2.4 4.3h-1.2c-1.2 0-2.4-0.6-3-1.7L36 36H28v10.5c0 1.9-1.6 3.5-3.5 3.5S21 48.4 21 46.5V18.5ZM28 22v8h6.2c2.5 0 4.3-1.7 4.3-4 0-2.3-1.8-4-4.3-4H28Z"/>
</svg>
